<svg width="28" height="28" viewBox="0 0 28 28" fill="none" xmlns="http://www.w3.org/2000/svg">
<path d="M14 23.3335C16.4754 23.3335 18.8494 22.3502 20.5997 20.5998C22.35 18.8495 23.3334 16.4755 23.3334 14.0002C23.3334 11.5248 22.35 9.15084 20.5997 7.4005C18.8494 5.65016 16.4754 4.66683 14 4.66683C11.5247 4.66683 9.15072 5.65016 7.40038 7.4005C5.65004 9.15084 4.66671 11.5248 4.66671 14.0002C4.66671 16.4755 5.65004 18.8495 7.40038 20.5998C9.15072 22.3502 11.5247 23.3335 14 23.3335ZM14 25.6668C7.55654 25.6668 2.33337 20.4437 2.33337 14.0002C2.33337 7.55666 7.55654 2.3335 14 2.3335C20.4435 2.3335 25.6667 7.55666 25.6667 14.0002C25.6667 20.4437 20.4435 25.6668 14 25.6668Z" fill="#188D59"/>
<path d="M18.2513 13.3047C18.2653 11.564 16.8291 9.96804 15.0499 9.74754L14.9333 9.73004C14.8441 9.71232 14.7535 9.70218 14.6626 9.69971C14.2974 9.69971 14.2006 9.96337 14.1749 10.1209C14.1604 10.1863 14.1591 10.2539 14.1711 10.3199C14.1831 10.3858 14.2082 10.4486 14.2449 10.5047C14.3663 10.6739 14.5786 10.703 14.7489 10.7287C14.7991 10.7357 14.8469 10.7415 14.8854 10.752C16.4849 11.1195 17.0239 11.6994 17.2864 13.3362C17.2934 13.377 17.2958 13.426 17.2981 13.4785C17.3098 13.6734 17.3343 14.0805 17.7589 14.0805C17.7939 14.0805 17.8313 14.0782 17.8709 14.0712C18.2664 14.0094 18.2536 13.6372 18.2478 13.4587C18.2454 13.4085 18.2443 13.3607 18.2478 13.3292C18.2491 13.3215 18.2498 13.3137 18.2501 13.3059L18.2513 13.3047Z" fill="#188D59"/>
<path d="M14.5599 9.1082C14.6066 9.1117 14.6533 9.1152 14.6894 9.12104C17.3144 9.5387 18.5231 10.822 18.8579 13.5544C18.8638 13.601 18.8638 13.657 18.8649 13.7177C18.8684 13.9312 18.8754 14.3745 19.3374 14.3839H19.3514C19.4149 14.3872 19.4783 14.377 19.5375 14.3539C19.5966 14.3307 19.6501 14.2952 19.6944 14.2497C19.8379 14.0945 19.8286 13.8647 19.8204 13.678C19.8181 13.6337 19.8158 13.5905 19.8169 13.5532C19.8496 10.759 17.5069 8.22504 14.8026 8.1317L14.7699 8.13287C14.7595 8.1344 14.749 8.13518 14.7384 8.1352C14.7116 8.1352 14.6778 8.13287 14.6428 8.13054C14.6008 8.12704 14.5518 8.12354 14.5028 8.12354C14.0723 8.12354 13.9906 8.43854 13.9801 8.62754C13.9568 9.0627 14.3639 9.0942 14.5599 9.1082ZM18.7308 17.0847C18.6746 17.0407 18.619 16.996 18.5639 16.9505C18.2769 16.7125 17.9713 16.4932 17.6773 16.2809C17.6158 16.2366 17.5543 16.1923 17.4929 16.1479C17.1149 15.8749 16.7754 15.7407 16.4546 15.7407C16.0229 15.7407 15.6461 15.988 15.3346 16.4745C15.1969 16.6892 15.0289 16.7942 14.8236 16.7942C14.6803 16.7891 14.5397 16.7529 14.4118 16.688C13.1926 16.1164 12.3211 15.2414 11.8229 14.0864C11.5826 13.5264 11.6596 13.1624 12.0843 12.8649C12.3246 12.6969 12.7726 12.383 12.7411 11.7822C12.7061 11.0997 11.2466 9.04637 10.6318 8.81304C10.3695 8.71405 10.0803 8.71323 9.81745 8.8107C9.11161 9.0557 8.60411 9.48737 8.35095 10.0555C8.10595 10.6062 8.11761 11.2514 8.38361 11.9234C9.15011 13.867 10.2269 15.561 11.5873 16.9587C12.9173 18.3272 14.5529 19.4472 16.4476 20.2895C16.6179 20.3654 16.7976 20.4062 16.9283 20.4365L17.0391 20.4645C17.0543 20.4689 17.07 20.4712 17.0858 20.4715H17.1009C17.9923 20.4715 19.0621 19.6315 19.3911 18.6725C19.6793 17.8325 19.1531 17.4184 18.7308 17.0859V17.0847ZM14.9543 11.3284C14.8026 11.3319 14.4841 11.34 14.3721 11.6737C14.3208 11.83 14.3266 11.9654 14.3908 12.0762C14.4853 12.2395 14.6673 12.2897 14.8318 12.3165C15.4291 12.4157 15.7371 12.7575 15.7978 13.3899C15.8269 13.6862 16.0194 13.8915 16.2668 13.8915C16.2855 13.8919 16.3042 13.8912 16.3228 13.8892C16.6203 13.8519 16.7638 13.6267 16.7509 13.2184C16.7556 12.7914 16.5398 12.3084 16.1723 11.9234C15.8036 11.536 15.3591 11.3179 14.9543 11.3284Z" fill="#188D59"/>
</svg>
