<svg width="28" height="28" viewBox="0 0 28 28" fill="none" xmlns="http://www.w3.org/2000/svg">
<path d="M4.66671 22.7922L8.65554 21.4674C8.87763 21.3935 9.10398 21.333 9.33337 21.2861V5.098L4.66671 6.64825V22.7922ZM3.89437 25.4976C3.71827 25.5606 3.52953 25.5805 3.34409 25.5556C3.15866 25.5307 2.98195 25.4617 2.8289 25.3545C2.67584 25.2472 2.55092 25.1049 2.46468 24.9395C2.37844 24.7741 2.3334 24.5905 2.33337 24.4041V5.81037C2.33333 5.56179 2.4133 5.31974 2.56155 5.11978C2.7098 4.91982 2.91851 4.77248 3.15704 4.69939L8.65554 2.87373C9.85283 2.47623 11.1473 2.47623 12.3445 2.87373L16.3929 4.21828C17.1115 4.45699 17.8885 4.45699 18.6072 4.21828L24.1057 2.39261C24.2818 2.32961 24.4706 2.30973 24.656 2.33465C24.8414 2.35956 25.0181 2.42854 25.1712 2.53576C25.3242 2.64298 25.4492 2.7853 25.5354 2.95071C25.6216 3.11612 25.6667 3.29977 25.6667 3.48616V22.0799C25.6668 22.3284 25.5868 22.5705 25.4385 22.7704C25.2903 22.9704 25.0816 23.1177 24.843 23.1908L19.3445 25.0165C18.1473 25.414 16.8528 25.414 15.6555 25.0165L11.6072 23.6719C10.8885 23.4332 10.1115 23.4332 9.39287 23.6719L3.89437 25.4976ZM23.3334 21.2431V5.098L19.3445 6.4228C19.1225 6.49672 18.8961 6.55726 18.6667 6.60409V22.7922L23.3334 21.242V21.2431ZM16.3334 22.7934V6.60409C16.104 6.55726 15.8776 6.49672 15.6555 6.4228L11.6667 5.098V21.2861C11.8961 21.333 12.1225 21.3935 12.3445 21.4674L16.3334 22.7934Z" fill="#188D59"/>
</svg>
