<svg width="23" height="24" viewBox="0 0 23 24" fill="none" xmlns="http://www.w3.org/2000/svg">
<path d="M2.6772 8.1721L10.7467 15.6641C10.9574 15.8595 11.2295 15.9674 11.5115 15.9674C11.7935 15.9674 12.0656 15.8595 12.2762 15.6641L20.3366 8.18048L12.129 2.59112C11.942 2.46379 11.7234 2.39598 11.5 2.39598C11.2766 2.39598 11.058 2.46379 10.8709 2.59112L2.6772 8.1721ZM20.7 8.4285V11.0524L13.8069 17.453C13.1749 18.0397 12.358 18.364 11.5115 18.364C10.665 18.364 9.84805 18.0397 9.2161 17.453L2.3 11.0309V8.4297V21.5099H20.7V8.4285ZM1.0419 6.4228L9.61285 0.585418C10.174 0.203426 10.8297 0 11.5 0C12.1703 0 12.826 0.203426 13.3871 0.585418L21.9581 6.4228C22.278 6.64061 22.5408 6.93804 22.7227 7.28823C22.9047 7.63842 22.9999 8.03031 23 8.4285V21.5099C23 22.1454 22.7577 22.7549 22.3263 23.2043C21.895 23.6537 21.31 23.9062 20.7 23.9062H2.3C1.69 23.9062 1.10499 23.6537 0.673654 23.2043C0.242321 22.7549 0 22.1454 0 21.5099V8.4285C5.06821e-05 8.03031 0.0953377 7.63842 0.277249 7.28823C0.45916 6.93804 0.721961 6.64061 1.0419 6.4228Z" fill="#188D59"/>
</svg>
