<svg width="28" height="29" viewBox="0 0 28 29" fill="none" xmlns="http://www.w3.org/2000/svg">
<path d="M18.6865 2.40723H9.27154C7.43189 2.40946 5.66822 3.16447 4.36749 4.50661C3.06677 5.84874 2.33523 7.66839 2.33337 9.5663L2.33337 19.2794C2.33554 21.1773 3.06737 22.9969 4.36832 24.3388C5.66926 25.6807 7.43305 26.4354 9.27271 26.4373H18.6877C20.5274 26.4351 22.291 25.6801 23.5918 24.3379C24.8925 22.9958 25.624 21.1761 25.6259 19.2782V9.5651C25.6237 7.66719 24.8919 5.84767 23.5909 4.50576C22.29 3.16384 20.5262 2.40914 18.6865 2.40723ZM23.2832 19.2782C23.2832 19.901 23.1643 20.5176 22.9333 21.093C22.7023 21.6684 22.3637 22.1911 21.9369 22.6315C21.51 23.0718 21.0033 23.4212 20.4456 23.6595C19.8879 23.8978 19.2902 24.0205 18.6865 24.0205H9.27154C8.05263 24.0201 6.88375 23.5204 6.02196 22.6311C5.16017 21.7418 4.67604 20.5357 4.67604 19.2782V9.5651C4.67635 8.30759 5.16078 7.10169 6.02279 6.21262C6.88479 5.32354 8.0538 4.82408 9.27271 4.82408H18.6877C19.9066 4.82439 21.0755 5.32416 21.9373 6.21347C22.7991 7.10277 23.2832 8.30879 23.2832 9.5663V19.2782Z" fill="#188D59"/>
<path d="M13.979 8.20752C12.3823 8.21007 10.8518 8.86564 9.72288 10.0305C8.59398 11.1954 7.95882 12.7745 7.95667 14.4218C7.95852 16.0694 8.59369 17.649 9.72288 18.8142C10.8521 19.9794 12.3831 20.635 13.9802 20.6372C15.5774 20.6353 17.1088 19.9798 18.2382 18.8146C19.3676 17.6494 20.003 16.0696 20.0048 14.4218C20.0024 12.7741 19.3666 11.1947 18.237 10.03C17.1073 8.8653 15.5761 8.21032 13.979 8.20872V8.20752ZM13.979 18.2204C13.0028 18.2204 12.0665 17.8203 11.3763 17.1081C10.686 16.396 10.2982 15.4301 10.2982 14.423C10.2982 13.4158 10.686 12.45 11.3763 11.7378C12.0665 11.0257 13.0028 10.6256 13.979 10.6256C14.9552 10.6256 15.8915 11.0257 16.5817 11.7378C17.272 12.45 17.6598 13.4158 17.6598 14.423C17.6598 15.4301 17.272 16.396 16.5817 17.1081C15.8915 17.8203 14.9552 18.2204 13.979 18.2204Z" fill="#188D59"/>
<path d="M20.0153 9.74336C20.8123 9.74336 21.4585 9.07677 21.4585 8.25449C21.4585 7.43221 20.8123 6.76562 20.0153 6.76562C19.2183 6.76562 18.5721 7.43221 18.5721 8.25449C18.5721 9.07677 19.2183 9.74336 20.0153 9.74336Z" fill="#188D59"/>
</svg>
